<?xml version="1.0" encoding="utf-8"?>
<svg id="master-artboard" viewBox="0 0 1400 980" version="1.1" xmlns="http://www.w3.org/2000/svg" x="0px" y="0px" style="enable-background:new 0 0 1400 980;" width="1400px" height="980px"><g><g transform="matrix(2.6205306053161626, 0, 0, 2.6205306053161626, 360.0856376899129, 196.71435840002238)"><title>no-image</title><path d="M30,3.4141,28.5859,2,2,28.5859,3.4141,30l2-2H26a2.0027,2.0027,0,0,0,2-2V5.4141ZM26,26H7.4141l7.7929-7.793,2.3788,2.3787a2,2,0,0,0,2.8284,0L22,19l4,3.9973Zm0-5.8318-2.5858-2.5859a2,2,0,0,0-2.8284,0L19,19.1682l-2.377-2.3771L26,7.4141Z"/><path d="M6,22V19l5-4.9966,1.3733,1.3733,1.4159-1.416-1.375-1.375a2,2,0,0,0-2.8284,0L6,16.1716V6H22V4H6A2.002,2.002,0,0,0,4,6V22Z"/><path d="M 0 0 H 32 V 32 H 0 V 0 Z" id="_Transparent_Rectangle_" data-name="&lt;Transparent Rectangle&gt;" class="cls-1" style="fill: none;"/></g><g transform="matrix(1.1999999284744265, 0, 0, 2, 271.7428629360029, 42.08569017180341)"><g id="g-1" transform="matrix(1, 0, 0, 1, 0, 0)">
	<g id="g-2">
		<path class="st0" d="M58,49h100v100H58V49z" style="fill: rgb(51, 51, 51); fill-opacity: 0; stroke: rgb(0, 0, 0); stroke-width: 0; stroke-opacity: 0;"/>
	</g>
</g></g></g></svg>